<?xml version="1.0" encoding="utf-8"?>
<!-- Generator: Adobe Illustrator 24.1.1, SVG Export Plug-In . SVG Version: 6.00 Build 0)  -->
<svg version="1.1" id="Capa_1" xmlns="http://www.w3.org/2000/svg" xmlns:xlink="http://www.w3.org/1999/xlink" x="0px" y="0px"
	 viewBox="0 0 1280 1024" style="enable-background:new 0 0 1280 1024;" xml:space="preserve">
<style type="text/css">
	.st0{display:none;}
	.st1{display:inline;}
	.st2{fill:#F2F2F2;}
	.st3{fill-rule:evenodd;clip-rule:evenodd;fill:#F2F2F2;}
</style>
<g>
	<g class="st0">
		<g class="st1">
			<path class="st2" d="M474.19,517.67h-52.02h-26.01c0,14.36-11.64,26.01-26.01,26.01v26.01V881.8l52.02-9.75v-94.28
				c0-24.79,25.08-45.51,52.02-50.74V881.8l52.02-9.75V569.69C523.33,540.43,500.97,517.67,474.19,517.67z M474.19,674.05
				c-20.89,2.05-41.78,13.88-52.02,30.21V602.2c0-14.36,11.64-26.01,26.01-26.01c14.36,0,26.01,11.64,26.01,26.01V674.05z"/>
			<path class="st2" d="M851.33,575.59v98.46c-20.89,2.05-41.78,13.88-52.02,30.21V569.69v-33.11v-26.01v-26.01H773.3
				c0,14.36-11.64,26.01-26.01,26.01v26.01v33.11v208.07V881.8l52.02-9.75v-94.28c0-24.79,25.08-45.51,52.02-50.74v102.76v57.92
				l52.02-9.75v-48.17V575.59v-57.92l-52.02,9.75V575.59z"/>
			<path class="st2" d="M662.92,517.67H610.9h-26.01c0,14.36-11.64,26.01-26.01,26.01v26.01v260.09c0,26.77,22.76,48.98,52.02,51.86
				v0.16h52.02c26.77,0,49.14-22.76,52.02-52.02V735.5l-52.02-9.75v71.53c0,14.36-11.64,26.01-26.01,26.01s-26.01-11.64-26.01-26.01
				V602.2c0-14.36,11.64-26.01,26.01-26.01s26.01,11.64,26.01,26.01v71.53l52.02-9.75v-94.28
				C712.06,540.43,689.7,517.67,662.92,517.67z"/>
			<polygon class="st2" points="188.09,484.56 201.09,504.07 700.48,504.07 708.43,484.56 			"/>
			<polygon class="st2" points="747.29,484.56 734.28,504.07 640.59,504.07 653.59,484.56 			"/>
			<polygon class="st2" points="1091.91,484.56 1078.91,504.07 818.81,504.07 831.82,484.56 			"/>
			<g>
				<g>
					<polygon class="st2" points="384.69,926.06 368.62,909.99 325.77,952.84 368.62,995.69 384.69,979.62 357.9,952.84 					"/>
					<circle class="st2" cx="390.04" cy="952.84" r="15.15"/>
				</g>
				<g>
					<path class="st2" d="M441.33,975.94c-3.1,0-6.08-0.51-8.95-1.54c-2.86-1.02-5.22-2.63-7.06-4.81c-1.84-2.18-2.79-5-2.84-8.47
						h5.04c0,0.16,0.05,0.6,0.16,1.34c0.1,0.74,0.38,1.59,0.83,2.56c0.45,0.97,1.17,1.94,2.17,2.92c1,0.97,2.39,1.78,4.18,2.41
						c1.79,0.63,4.07,0.95,6.86,0.95c3.1,0,5.46-0.46,7.09-1.38c1.63-0.92,2.74-1.97,3.35-3.15c0.6-1.18,0.91-2.11,0.91-2.8
						c0.05-1.84-0.45-3.31-1.5-4.41c-1.05-1.1-2.46-2-4.22-2.68c-1.76-0.68-3.69-1.29-5.79-1.81c-2.1-0.52-4.19-1.09-6.27-1.69
						c-2.08-0.6-3.98-1.39-5.72-2.36c-1.73-0.97-3.1-2.25-4.1-3.82c-1-1.58-1.45-3.6-1.34-6.07c0.1-2.36,0.92-4.39,2.44-6.07
						c1.52-1.68,3.56-2.98,6.11-3.9c2.55-0.92,5.45-1.38,8.71-1.38c3,0,5.77,0.54,8.32,1.62c2.55,1.08,4.58,2.69,6.11,4.85
						c1.52,2.16,2.23,4.84,2.13,8.04H453c0.05-2-0.33-3.64-1.14-4.93c-0.82-1.29-1.88-2.27-3.19-2.96
						c-1.31-0.68-2.67-1.17-4.06-1.46c-1.39-0.29-2.61-0.43-3.66-0.43c-3.31,0-6.04,0.66-8.2,1.97c-2.16,1.31-3.26,3.02-3.31,5.12
						c0,1.84,0.52,3.31,1.58,4.41c1.05,1.1,2.46,1.98,4.22,2.64c1.76,0.66,3.69,1.22,5.79,1.69c2.1,0.47,4.19,1.01,6.27,1.62
						c2.08,0.6,3.98,1.38,5.71,2.33c1.73,0.95,3.1,2.23,4.1,3.86c1,1.63,1.44,3.7,1.34,6.23c-0.11,2.47-0.92,4.56-2.44,6.27
						c-1.52,1.71-3.55,3.02-6.07,3.94C447.4,975.47,444.54,975.94,441.33,975.94z"/>
					<path class="st2" d="M474.04,974.91l15.61-44.38h8.36l15.84,44.38h-5.36l-4.81-13.87h-19.47l-4.81,13.87H474.04z
						 M493.99,932.74l-8.36,24.04h16.63L493.99,932.74z"/>
					<path class="st2" d="M531.51,974.91v-44.38h5.05v39.96h24.59v4.41H531.51z"/>
					<path class="st2" d="M596.7,975.94c-5.94,0-10.5-1.73-13.68-5.2c-3.18-3.47-4.77-8.38-4.77-14.74v-25.46h5.2v25.46
						c0,5.31,1.26,9.16,3.78,11.55c2.52,2.39,5.68,3.59,9.46,3.59c4.1,0,7.34-1.18,9.73-3.55c2.39-2.36,3.59-6.23,3.59-11.59v-25.46
						h5.2v25.46c0,6.46-1.56,11.4-4.69,14.82C607.4,974.23,602.79,975.94,596.7,975.94z"/>
					<path class="st2" d="M674.34,952.68c0,5.83-1.1,10.37-3.31,13.6c-2.21,3.23-5.31,5.48-9.3,6.74
						c-3.99,1.26-8.67,1.89-14.03,1.89h-11.75v-44.38h11.75c5.36,0,10.04,0.83,14.03,2.48c3.99,1.66,7.09,4.11,9.3,7.37
						C673.24,943.64,674.34,947.74,674.34,952.68z M641,970.58h7.8c4.1,0,7.66-0.46,10.68-1.38c3.02-0.92,5.36-2.67,7.02-5.24
						c1.66-2.57,2.48-6.33,2.48-11.27c0-6.04-1.84-10.5-5.52-13.36c-3.68-2.86-8.57-4.3-14.66-4.3H641V970.58z"/>
					<path class="st2" d="M689.55,974.91l15.61-44.38h8.36l15.84,44.38H724l-4.81-13.87h-19.47l-4.81,13.87H689.55z M709.5,932.74
						l-8.36,24.04h16.63L709.5,932.74z"/>
					<path class="st2" d="M746.46,974.91v-44.38h16c1.94,0,3.9,0.13,5.87,0.39c1.97,0.26,3.78,0.79,5.44,1.58
						c1.66,0.79,3,1.97,4.02,3.55c1.02,1.58,1.54,3.65,1.54,6.23c0,1.73-0.33,3.32-0.99,4.77c-0.66,1.45-1.84,2.61-3.55,3.51
						c-1.71,0.89-4.17,1.42-7.37,1.58c3.73,0,6.59,0.54,8.59,1.62c2,1.08,3.38,2.43,4.14,4.06c0.76,1.63,1.14,3.44,1.14,5.44
						c0,2.63-0.57,4.73-1.69,6.31c-1.13,1.58-2.59,2.75-4.38,3.51c-1.79,0.76-3.73,1.26-5.83,1.5c-2.1,0.24-4.13,0.35-6.07,0.35
						H746.46z M751.51,950h10.4c2.47,0,4.62-0.16,6.46-0.47c1.84-0.32,3.27-0.99,4.3-2.01c1.03-1.02,1.54-2.61,1.54-4.77
						c0-2.47-0.57-4.26-1.69-5.36c-1.13-1.1-2.63-1.8-4.49-2.09c-1.87-0.29-3.88-0.43-6.03-0.43h-10.48V950z M751.51,970.65h11.43
						c2.42,0,4.61-0.17,6.58-0.51c1.97-0.34,3.55-1.08,4.73-2.21c1.18-1.13,1.77-2.88,1.77-5.24c0-2.47-0.63-4.32-1.89-5.56
						c-1.26-1.23-2.94-2.05-5.05-2.44c-2.1-0.39-4.44-0.59-7.02-0.59h-10.56V970.65z"/>
					<path class="st2" d="M800.38,974.91v-44.38h5.04v39.96h24.59v4.41H800.38z"/>
					<path class="st2" d="M852.48,970.65h25.54v4.26h-30.51v-44.38h29.72v4.49h-24.75v15.29h19.63v4.26h-19.63V970.65z"/>
				</g>
				<g>
					<polygon class="st2" points="915.8,926.06 931.87,909.99 974.72,952.84 931.87,995.69 915.8,979.62 942.58,952.84 					"/>
					<circle class="st2" cx="910.44" cy="952.84" r="15.15"/>
				</g>
			</g>
			<path class="st2" d="M344.09,569.31c-3.07-29.03-25.33-51.65-51.96-51.65h-52.02H214.1c0,14.36-11.64,26.01-26.01,26.01v18.91
				v7.1v375.94v26.35v20.92c10.21-11.56,25.49-24.65,48.47-38.39l3.55-1.77V825.11c2.24-23.12,26.46-42.63,52.02-47.87v0.05
				c2.37-0.23,4.69-0.61,6.96-1.11c0.03,0,0.06-0.01,0.09-0.01h-0.05c25.66-5.59,44.8-27.19,45-51.62h0.01V569.31H344.09z
				 M216,840.93l-1.32,44.25c-0.78,14.75-1.24,29.5-2.31,44.25c-1.07-14.75-1.53-29.5-2.31-44.25l-1.32-44.25
				c-0.85-29.5-0.98-59-1.09-88.5c0.12-29.5,0.24-59,1.1-88.5c0.75-29.5,1.67-59,3.61-88.5c1.94,29.5,2.86,59,3.61,88.5
				c0.86,29.5,0.98,59,1.1,88.5C216.98,781.93,216.86,811.43,216,840.93z M292.13,724.15v0.72c-20.89,2.05-41.78,13.88-52.02,30.21
				V602.2c0-14.36,11.64-26.01,26.01-26.01c14.36,0,26.01,11.64,26.01,26.01V724.15z"/>
			<path class="st2" d="M1039.89,517.67h-52.02h-26.01c0,14.36-11.64,26.01-26.01,26.01v26.01V881.8l52.02-9.75v-94.28
				c0-24.79,25.08-45.51,52.02-50.74v225.22l0.17,0.09v0.4c24.96,14.56,41.21,28.44,51.85,40.6v-21.14v-26.56V569.79
				C1089.04,540.53,1066.67,517.67,1039.89,517.67z M1039.89,674.05c-20.89,2.05-41.78,13.88-52.02,30.22V602.2
				c0-14.36,11.64-26.01,26.01-26.01c14.36,0,26.01,11.64,26.01,26.01V674.05z M1073.85,840.93l-1.32,44.25
				c-0.78,14.75-1.24,29.5-2.31,44.25c-1.07-14.75-1.53-29.5-2.31-44.25l-1.32-44.25c-0.85-29.5-0.98-59-1.09-88.5
				c0.12-29.5,0.24-59,1.1-88.5c0.75-29.5,1.67-59,3.61-88.5c1.94,29.5,2.86,59,3.61,88.5c0.86,29.5,0.98,59,1.1,88.5
				C1074.83,781.93,1074.7,811.43,1073.85,840.93z"/>
		</g>
		<g class="st1">
			<g>
				<path class="st2" d="M761.11,450.96H518.95v-12.65c0-66.77,54.31-121.09,121.08-121.09c66.76,0,121.08,54.31,121.08,121.09
					V450.96z M545.09,425.66h189.88c-6.22-46.87-46.42-83.14-94.94-83.14C591.5,342.52,551.28,378.79,545.09,425.66z"/>
				<path class="st3" d="M1044.17,432.37c-29.15,17.03-57.91,16.21-86-3.27c-36.57-25.47-76.61-37.11-120.44-34.1
					c-3.05,0.15-6.06,0.82-9.39,1.26c1.33,18.41,2.59,36.14,3.82,54.03c15.59-2.42,30.72-4.91,45.75-7.21
					c14.96-2.31,29.74-1.41,44.28,3.12c15.73,4.98,31.25,11.27,47.12,16.4c38.6,12.3,73.74,1.56,98.02-31.61
					c9.39-12.94,15.66-28.48,23.22-42.91c0.81-1.6,0.84-3.63,1.37-5.51C1079.79,403.33,1064.45,420.51,1044.17,432.37z"/>
				<path class="st3" d="M420.59,459.07c9.11,2.01,18.53,2.79,28.51,4.24c1.79-19.26,3.33-37.18,4.97-55.07
					c-15.97-0.3-30.83-0.48-45.68-0.82c-15.31-0.37-30.09-4.02-43.68-11.15c-13.8-7.25-27.04-15.72-40.85-23.1
					c-23.61-12.55-48.27-17.55-73.95-7.03c-29.32,11.99-47.43,36-61.83,63.71c1.86-1.45,3.36-3.16,4.87-5.02
					c11.88-14.06,25.96-25.17,42.49-33.02c33.94-16.09,65.65-10.7,92.55,16.17C354.31,434.05,385.03,451.19,420.59,459.07z"/>
				<path class="st3" d="M434.67,158.06c4.03,13.78,5.85,28.5,6.76,42.93c2.66,46.4,23.05,82.97,56.96,112.29
					c1.23,1.1,4.55,1.6,5.74,0.63c11.07-7.77,21.93-15.8,33.66-24.54c-27.08-15.56-45.78-38.19-59.03-65.13
					c-8.34-17.01-14.12-35.38-21.19-53.04c-4.8-11.99-8.93-24.56-15.03-35.88c-10.3-19.06-25.92-32.33-46.17-39.47
					c-11.17-3.9-26.13-5.45-32.47-3.09C399.81,100.02,423.91,121.49,434.67,158.06z"/>
				<path class="st3" d="M759.33,295.86c7.85,6.08,15.66,12.27,24.24,18.91c1.4-17.92,4.62-33.93,12.47-48.67
					c10.61-19.99,26.9-30.45,49.04-30.17c6.73,0.06,13.35,1.26,19.97,2.21c18.01,2.62,34.29-0.98,47.82-14.02
					c18.78-18.09,25.64-41.92,29.43-66.87c-2.17,6.3-4.1,12.79-6.59,18.94c-2.7,6.36-5.71,12.59-9.11,18.55
					c-16.46,28.71-40.29,36.23-69.75,22.12c-26.9-12.9-49.36-9.22-70.97,11.88c-13.49,13.22-23.33,29.3-31.35,46.7
					C748.93,287.76,749,287.78,759.33,295.86z"/>
				<path class="st3" d="M655.05,93.86c4.34,21.81,0.04,41.33-14.22,58.32c-4.59,5.54-8.86,11.47-12.44,17.85
					c-13.84,24.26-17.41,49.88-7.71,76.9c0.84,2.12,2.87,5.08,4.55,5.34c12.96,1.52,26.13,2.44,40.32,3.7
					c-2.21-3.57-3.82-6.06-5.25-8.63c-16.39-28.5-17.87-57.37-0.84-85.71c14.89-24.88,16.95-50.33,5.82-77.12
					c-8.72-21.06-22.63-38.14-38.74-53.41c-1.19-1.04-2.38-1.87-3.57-2.8c1.3,3.02,3.05,5.44,4.76,7.83
					C640.26,53.65,650.6,72.24,655.05,93.86z"/>
				<path class="st3" d="M485.25,342.12c-51.32-33.17-101.8-65.83-152.24-98.48c-0.24,0.35-0.53,0.74-0.67,1.12
					c43.44,42.67,86.91,85.35,130.84,128.49C470.68,362.59,477.72,352.73,485.25,342.12z"/>
				<path class="st3" d="M593.78,260.02c-23.89-56.71-47.22-112.44-70.69-168.24c-0.45,0.17-0.95,0.28-1.37,0.45
					c12.65,59.87,25.29,119.75,38.04,180.17C571.57,268.11,582.5,264.15,593.78,260.02z"/>
				<path class="st3" d="M824.45,376.18c47.26-28.24,93.78-55.98,140.16-83.64c-0.1-0.41-0.35-0.82-0.6-1.21
					c-52.06,16.53-104.15,33.13-156.8,49.96C813.1,353.09,818.64,364.24,824.45,376.18z"/>
				<path class="st3" d="M757.58,109.87c-0.49-0.06-0.95-0.13-1.3-0.24c-24.28,48.38-48.66,96.75-72.93,145.13
					c11.04,5.17,20.98,9.89,31.53,14.82C729.17,215.9,743.36,162.89,757.58,109.87z"/>
			</g>
		</g>
	</g>
	<g class="st0">
		<g class="st1">
			<g>
				<path class="st2" d="M761.11,450.96H518.95v-12.65c0-66.77,54.31-121.09,121.08-121.09c66.76,0,121.08,54.31,121.08,121.09
					V450.96z M545.09,425.66h189.88c-6.22-46.87-46.42-83.14-94.94-83.14C591.5,342.52,551.28,378.79,545.09,425.66z"/>
				<polygon class="st2" points="651.37,307.9 645.05,307.9 645.05,283.89 634.98,283.89 634.98,307.9 628.65,307.9 628.65,277.56 
					651.37,277.56 				"/>
				<polygon class="st2" points="580.53,321.84 569.1,293.7 590.17,285.21 601.54,313.34 595.69,315.71 586.67,293.44 577.35,297.2 
					586.38,319.46 				"/>
				<polygon class="st2" points="541.21,352.86 520.02,331.07 536.35,315.24 557.47,337.06 552.92,341.46 536.22,324.19 
					528.97,331.21 545.74,348.44 				"/>
				<polygon class="st2" points="516.34,396.37 488.5,384.14 497.77,363.37 525.48,375.6 522.92,381.39 500.98,371.7 496.86,380.91 
					518.88,390.58 				"/>
				<polygon class="st2" points="509.65,446.04 479.31,445.15 480,422.44 510.33,423.35 510.15,429.67 486.12,428.95 485.82,439.01 
					509.83,439.71 				"/>
				<polygon class="st2" points="772.13,453.43 771.95,447.11 795.98,446.42 795.71,436.33 771.67,437.07 771.48,430.74 
					801.87,429.82 802.47,452.56 				"/>
				<polygon class="st2" points="764.45,396.22 762.01,390.38 784.2,381.13 780.32,371.84 758.15,381.17 755.69,375.35 
					783.71,363.56 792.48,384.53 				"/>
				<polygon class="st2" points="739.3,352.73 735.04,348.07 752.71,331.88 745.91,324.44 728.28,340.7 723.99,336.04 746.3,315.49 
					761.64,332.28 				"/>
				<polygon class="st2" points="697.56,322.02 691.77,319.48 701.44,297.52 692.24,293.45 682.6,315.46 676.81,312.92 
					688.99,285.1 709.77,294.29 				"/>
				<path class="st3" d="M1044.17,432.37c-29.15,17.03-57.91,16.21-86-3.27c-36.57-25.47-76.61-37.11-120.44-34.1
					c-3.05,0.15-6.06,0.82-9.39,1.26c1.33,18.41,2.59,36.14,3.82,54.03c15.59-2.42,30.72-4.91,45.75-7.21
					c14.96-2.31,29.74-1.41,44.28,3.12c15.73,4.98,31.25,11.27,47.12,16.4c38.6,12.3,73.74,1.56,98.02-31.61
					c9.39-12.94,15.66-28.48,23.22-42.91c0.81-1.6,0.84-3.63,1.37-5.51C1079.79,403.33,1064.45,420.51,1044.17,432.37z"/>
				<path class="st3" d="M420.59,459.07c9.11,2.01,18.53,2.79,28.51,4.24c1.79-19.26,3.33-37.18,4.97-55.07
					c-15.97-0.3-30.83-0.48-45.68-0.82c-15.31-0.37-30.09-4.02-43.68-11.15c-13.8-7.25-27.04-15.72-40.85-23.1
					c-23.61-12.55-48.27-17.55-73.95-7.03c-29.32,11.99-47.43,36-61.83,63.71c1.86-1.45,3.36-3.16,4.87-5.02
					c11.88-14.06,25.96-25.17,42.49-33.02c33.94-16.09,65.65-10.7,92.55,16.17C354.31,434.05,385.03,451.19,420.59,459.07z"/>
				<path class="st3" d="M434.67,158.06c4.03,13.78,5.85,28.5,6.76,42.93c2.66,46.4,23.05,82.97,56.96,112.29
					c1.23,1.1,4.55,1.6,5.74,0.63c11.07-7.77,21.93-15.8,33.66-24.54c-27.08-15.56-45.78-38.19-59.03-65.13
					c-8.34-17.01-14.12-35.38-21.19-53.04c-4.8-11.99-8.93-24.56-15.03-35.88c-10.3-19.06-25.92-32.33-46.17-39.47
					c-11.17-3.9-26.13-5.45-32.47-3.09C399.81,100.02,423.91,121.49,434.67,158.06z"/>
				<path class="st3" d="M759.33,295.86c7.85,6.08,15.66,12.27,24.24,18.91c1.4-17.92,4.62-33.93,12.47-48.67
					c10.61-19.99,26.9-30.45,49.04-30.17c6.73,0.06,13.35,1.26,19.97,2.21c18.01,2.62,34.29-0.98,47.82-14.02
					c18.78-18.09,25.64-41.92,29.43-66.87c-2.17,6.3-4.1,12.79-6.59,18.94c-2.7,6.36-5.71,12.59-9.11,18.55
					c-16.46,28.71-40.29,36.23-69.75,22.12c-26.9-12.9-49.36-9.22-70.97,11.88c-13.49,13.22-23.33,29.3-31.35,46.7
					C748.93,287.76,749,287.78,759.33,295.86z"/>
				<path class="st3" d="M655.05,93.86c4.34,21.81,0.04,41.33-14.22,58.32c-4.59,5.54-8.86,11.47-12.44,17.85
					c-13.84,24.26-17.41,49.88-7.71,76.9c0.84,2.12,2.87,5.08,4.55,5.34c12.96,1.52,26.13,2.44,40.32,3.7
					c-2.21-3.57-3.82-6.06-5.25-8.63c-16.39-28.5-17.87-57.37-0.84-85.71c14.89-24.88,16.95-50.33,5.82-77.12
					c-8.72-21.06-22.63-38.14-38.74-53.41c-1.19-1.04-2.38-1.87-3.57-2.8c1.3,3.02,3.05,5.44,4.76,7.83
					C640.26,53.65,650.6,72.24,655.05,93.86z"/>
				<path class="st3" d="M485.25,342.12c-51.32-33.17-101.8-65.83-152.24-98.48c-0.24,0.35-0.53,0.74-0.67,1.12
					c43.44,42.67,86.91,85.35,130.84,128.49C470.68,362.59,477.72,352.73,485.25,342.12z"/>
				<path class="st3" d="M593.78,260.02c-23.89-56.71-47.22-112.44-70.69-168.24c-0.45,0.17-0.95,0.28-1.37,0.45
					c12.65,59.87,25.29,119.75,38.04,180.17C571.57,268.11,582.5,264.15,593.78,260.02z"/>
				<path class="st3" d="M824.45,376.18c47.26-28.24,93.78-55.98,140.16-83.64c-0.1-0.41-0.35-0.82-0.6-1.21
					c-52.06,16.53-104.15,33.13-156.8,49.96C813.1,353.09,818.64,364.24,824.45,376.18z"/>
				<path class="st3" d="M757.58,109.87c-0.49-0.06-0.95-0.13-1.3-0.24c-24.28,48.38-48.66,96.75-72.93,145.13
					c11.04,5.17,20.98,9.89,31.53,14.82C729.17,215.9,743.36,162.89,757.58,109.87z"/>
			</g>
		</g>
		<g class="st1">
			<path class="st2" d="M474.19,517.67h-52.02h-26.01c0,14.36-11.64,26.01-26.01,26.01v26.01V881.8l52.02-9.75v-94.28
				c0-24.79,25.08-45.51,52.02-50.74V881.8l52.02-9.75V569.69C523.33,540.43,500.97,517.67,474.19,517.67z M474.19,674.05
				c-20.89,2.05-41.78,13.88-52.02,30.21V602.2c0-14.36,11.64-26.01,26.01-26.01c14.36,0,26.01,11.64,26.01,26.01V674.05z"/>
			<path class="st2" d="M851.33,575.59v98.46c-20.89,2.05-41.78,13.88-52.02,30.21V569.69v-33.11v-26.01v-26.01H773.3
				c0,14.36-11.64,26.01-26.01,26.01v26.01v33.11v208.07V881.8l52.02-9.75v-94.28c0-24.79,25.08-45.51,52.02-50.74v102.76v57.92
				l52.02-9.75v-48.17V575.59v-57.92l-52.02,9.75V575.59z"/>
			<path class="st2" d="M662.92,517.67H610.9h-26.01c0,14.36-11.64,26.01-26.01,26.01v26.01v260.09c0,26.77,22.76,48.98,52.02,51.86
				v0.16h52.02c26.77,0,49.14-22.76,52.02-52.02V735.5l-52.02-9.75v71.53c0,14.36-11.64,26.01-26.01,26.01s-26.01-11.64-26.01-26.01
				V602.2c0-14.36,11.64-26.01,26.01-26.01s26.01,11.64,26.01,26.01v71.53l52.02-9.75v-94.28
				C712.06,540.43,689.7,517.67,662.92,517.67z"/>
			<polygon class="st2" points="188.09,484.56 201.09,504.07 700.48,504.07 708.43,484.56 			"/>
			<polygon class="st2" points="747.29,484.56 734.28,504.07 640.59,504.07 653.59,484.56 			"/>
			<polygon class="st2" points="1091.91,484.56 1078.91,504.07 818.81,504.07 831.82,484.56 			"/>
			<g>
				<g>
					<polygon class="st2" points="384.69,926.06 368.62,909.99 325.77,952.84 368.62,995.69 384.69,979.62 357.9,952.84 					"/>
					<circle class="st2" cx="390.04" cy="952.84" r="15.15"/>
				</g>
				<g>
					<path class="st2" d="M441.33,975.94c-3.1,0-6.08-0.51-8.95-1.54c-2.86-1.02-5.22-2.63-7.06-4.81c-1.84-2.18-2.79-5-2.84-8.47
						h5.04c0,0.16,0.05,0.6,0.16,1.34c0.1,0.74,0.38,1.59,0.83,2.56c0.45,0.97,1.17,1.94,2.17,2.92c1,0.97,2.39,1.78,4.18,2.41
						c1.79,0.63,4.07,0.95,6.86,0.95c3.1,0,5.46-0.46,7.09-1.38c1.63-0.92,2.74-1.97,3.35-3.15c0.6-1.18,0.91-2.11,0.91-2.8
						c0.05-1.84-0.45-3.31-1.5-4.41c-1.05-1.1-2.46-2-4.22-2.68c-1.76-0.68-3.69-1.29-5.79-1.81c-2.1-0.52-4.19-1.09-6.27-1.69
						c-2.08-0.6-3.98-1.39-5.72-2.36c-1.73-0.97-3.1-2.25-4.1-3.82c-1-1.58-1.45-3.6-1.34-6.07c0.1-2.36,0.92-4.39,2.44-6.07
						c1.52-1.68,3.56-2.98,6.11-3.9c2.55-0.92,5.45-1.38,8.71-1.38c3,0,5.77,0.54,8.32,1.62c2.55,1.08,4.58,2.69,6.11,4.85
						c1.52,2.16,2.23,4.84,2.13,8.04H453c0.05-2-0.33-3.64-1.14-4.93c-0.82-1.29-1.88-2.27-3.19-2.96
						c-1.31-0.68-2.67-1.17-4.06-1.46c-1.39-0.29-2.61-0.43-3.66-0.43c-3.31,0-6.04,0.66-8.2,1.97c-2.16,1.31-3.26,3.02-3.31,5.12
						c0,1.84,0.52,3.31,1.58,4.41c1.05,1.1,2.46,1.98,4.22,2.64c1.76,0.66,3.69,1.22,5.79,1.69c2.1,0.47,4.19,1.01,6.27,1.62
						c2.08,0.6,3.98,1.38,5.71,2.33c1.73,0.95,3.1,2.23,4.1,3.86c1,1.63,1.44,3.7,1.34,6.23c-0.11,2.47-0.92,4.56-2.44,6.27
						c-1.52,1.71-3.55,3.02-6.07,3.94C447.4,975.47,444.54,975.94,441.33,975.94z"/>
					<path class="st2" d="M474.04,974.91l15.61-44.38h8.36l15.84,44.38h-5.36l-4.81-13.87h-19.47l-4.81,13.87H474.04z
						 M493.99,932.74l-8.36,24.04h16.63L493.99,932.74z"/>
					<path class="st2" d="M531.51,974.91v-44.38h5.05v39.96h24.59v4.41H531.51z"/>
					<path class="st2" d="M596.7,975.94c-5.94,0-10.5-1.73-13.68-5.2c-3.18-3.47-4.77-8.38-4.77-14.74v-25.46h5.2v25.46
						c0,5.31,1.26,9.16,3.78,11.55c2.52,2.39,5.68,3.59,9.46,3.59c4.1,0,7.34-1.18,9.73-3.55c2.39-2.36,3.59-6.23,3.59-11.59v-25.46
						h5.2v25.46c0,6.46-1.56,11.4-4.69,14.82C607.4,974.23,602.79,975.94,596.7,975.94z"/>
					<path class="st2" d="M674.34,952.68c0,5.83-1.1,10.37-3.31,13.6c-2.21,3.23-5.31,5.48-9.3,6.74
						c-3.99,1.26-8.67,1.89-14.03,1.89h-11.75v-44.38h11.75c5.36,0,10.04,0.83,14.03,2.48c3.99,1.66,7.09,4.11,9.3,7.37
						C673.24,943.64,674.34,947.74,674.34,952.68z M641,970.58h7.8c4.1,0,7.66-0.46,10.68-1.38c3.02-0.92,5.36-2.67,7.02-5.24
						c1.66-2.57,2.48-6.33,2.48-11.27c0-6.04-1.84-10.5-5.52-13.36c-3.68-2.86-8.57-4.3-14.66-4.3H641V970.58z"/>
					<path class="st2" d="M689.55,974.91l15.61-44.38h8.36l15.84,44.38H724l-4.81-13.87h-19.47l-4.81,13.87H689.55z M709.5,932.74
						l-8.36,24.04h16.63L709.5,932.74z"/>
					<path class="st2" d="M746.46,974.91v-44.38h16c1.94,0,3.9,0.13,5.87,0.39c1.97,0.26,3.78,0.79,5.44,1.58
						c1.66,0.79,3,1.97,4.02,3.55c1.02,1.58,1.54,3.65,1.54,6.23c0,1.73-0.33,3.32-0.99,4.77c-0.66,1.45-1.84,2.61-3.55,3.51
						c-1.71,0.89-4.17,1.42-7.37,1.58c3.73,0,6.59,0.54,8.59,1.62c2,1.08,3.38,2.43,4.14,4.06c0.76,1.63,1.14,3.44,1.14,5.44
						c0,2.63-0.57,4.73-1.69,6.31c-1.13,1.58-2.59,2.75-4.38,3.51c-1.79,0.76-3.73,1.26-5.83,1.5c-2.1,0.24-4.13,0.35-6.07,0.35
						H746.46z M751.51,950h10.4c2.47,0,4.62-0.16,6.46-0.47c1.84-0.32,3.27-0.99,4.3-2.01c1.03-1.02,1.54-2.61,1.54-4.77
						c0-2.47-0.57-4.26-1.69-5.36c-1.13-1.1-2.63-1.8-4.49-2.09c-1.87-0.29-3.88-0.43-6.03-0.43h-10.48V950z M751.51,970.65h11.43
						c2.42,0,4.61-0.17,6.58-0.51c1.97-0.34,3.55-1.08,4.73-2.21c1.18-1.13,1.77-2.88,1.77-5.24c0-2.47-0.63-4.32-1.89-5.56
						c-1.26-1.23-2.94-2.05-5.05-2.44c-2.1-0.39-4.44-0.59-7.02-0.59h-10.56V970.65z"/>
					<path class="st2" d="M800.38,974.91v-44.38h5.04v39.96h24.59v4.41H800.38z"/>
					<path class="st2" d="M852.48,970.65h25.54v4.26h-30.51v-44.38h29.72v4.49h-24.75v15.29h19.63v4.26h-19.63V970.65z"/>
				</g>
				<g>
					<polygon class="st2" points="915.8,926.06 931.87,909.99 974.72,952.84 931.87,995.69 915.8,979.62 942.58,952.84 					"/>
					<circle class="st2" cx="910.44" cy="952.84" r="15.15"/>
				</g>
			</g>
			<path class="st2" d="M344.09,569.31c-3.07-29.03-25.33-51.65-51.96-51.65h-52.02H214.1c0,14.36-11.64,26.01-26.01,26.01v18.91
				v7.1v375.94v26.35v20.92c10.21-11.56,25.49-24.65,48.47-38.39l3.55-1.77V825.11c2.24-23.12,26.46-42.63,52.02-47.87v0.05
				c2.37-0.23,4.69-0.61,6.96-1.11c0.03,0,0.06-0.01,0.09-0.01h-0.05c25.66-5.59,44.8-27.19,45-51.62h0.01V569.31H344.09z
				 M216,840.93l-1.32,44.25c-0.78,14.75-1.24,29.5-2.31,44.25c-1.07-14.75-1.53-29.5-2.31-44.25l-1.32-44.25
				c-0.85-29.5-0.98-59-1.09-88.5c0.12-29.5,0.24-59,1.1-88.5c0.75-29.5,1.67-59,3.61-88.5c1.94,29.5,2.86,59,3.61,88.5
				c0.86,29.5,0.98,59,1.1,88.5C216.98,781.93,216.86,811.43,216,840.93z M292.13,724.15v0.72c-20.89,2.05-41.78,13.88-52.02,30.21
				V602.2c0-14.36,11.64-26.01,26.01-26.01c14.36,0,26.01,11.64,26.01,26.01V724.15z"/>
			<path class="st2" d="M1039.89,517.67h-52.02h-26.01c0,14.36-11.64,26.01-26.01,26.01v26.01V881.8l52.02-9.75v-94.28
				c0-24.79,25.08-45.51,52.02-50.74v225.22l0.17,0.09v0.4c24.96,14.56,41.21,28.44,51.85,40.6v-21.14v-26.56V569.79
				C1089.04,540.53,1066.67,517.67,1039.89,517.67z M1039.89,674.05c-20.89,2.05-41.78,13.88-52.02,30.22V602.2
				c0-14.36,11.64-26.01,26.01-26.01c14.36,0,26.01,11.64,26.01,26.01V674.05z M1073.85,840.93l-1.32,44.25
				c-0.78,14.75-1.24,29.5-2.31,44.25c-1.07-14.75-1.53-29.5-2.31-44.25l-1.32-44.25c-0.85-29.5-0.98-59-1.09-88.5
				c0.12-29.5,0.24-59,1.1-88.5c0.75-29.5,1.67-59,3.61-88.5c1.94,29.5,2.86,59,3.61,88.5c0.86,29.5,0.98,59,1.1,88.5
				C1074.83,781.93,1074.7,811.43,1073.85,840.93z"/>
		</g>
	</g>
	<g>
		<g>
			<g>
				<polygon class="st2" points="651.37,307.9 645.05,307.9 645.05,283.89 634.98,283.89 634.98,307.9 628.65,307.9 628.65,277.56 
					651.37,277.56 				"/>
				<polygon class="st2" points="580.53,321.84 569.1,293.7 590.17,285.21 601.54,313.34 595.69,315.71 586.67,293.44 577.35,297.2 
					586.38,319.46 				"/>
				<polygon class="st2" points="541.21,352.86 520.02,331.07 536.35,315.24 557.47,337.06 552.92,341.46 536.22,324.19 
					528.97,331.21 545.74,348.44 				"/>
				<polygon class="st2" points="516.34,396.37 488.5,384.14 497.77,363.37 525.48,375.6 522.92,381.39 500.98,371.7 496.86,380.91 
					518.88,390.58 				"/>
				<polygon class="st2" points="509.65,446.04 479.31,445.15 480,422.44 510.33,423.35 510.15,429.67 486.12,428.95 485.82,439.01 
					509.83,439.71 				"/>
				<polygon class="st2" points="772.13,453.43 771.95,447.11 795.98,446.42 795.71,436.33 771.67,437.07 771.48,430.74 
					801.87,429.82 802.47,452.56 				"/>
				<polygon class="st2" points="764.45,396.22 762.01,390.38 784.2,381.13 780.32,371.84 758.15,381.17 755.69,375.35 
					783.71,363.56 792.48,384.53 				"/>
				<polygon class="st2" points="739.3,352.73 735.04,348.07 752.71,331.88 745.91,324.44 728.28,340.7 723.99,336.04 746.3,315.49 
					761.64,332.28 				"/>
				<polygon class="st2" points="697.56,322.02 691.77,319.48 701.44,297.52 692.24,293.45 682.6,315.46 676.81,312.92 
					688.99,285.1 709.77,294.29 				"/>
				<path class="st3" d="M1044.17,432.37c-29.15,17.03-57.91,16.21-86-3.27c-36.57-25.47-76.61-37.11-120.44-34.1
					c-3.05,0.15-6.06,0.82-9.39,1.26c1.33,18.41,2.59,36.14,3.82,54.03c15.59-2.42,30.72-4.91,45.75-7.21
					c14.96-2.31,29.74-1.41,44.28,3.12c15.73,4.98,31.25,11.27,47.12,16.4c38.6,12.3,73.74,1.56,98.02-31.61
					c9.39-12.94,15.66-28.48,23.22-42.91c0.81-1.6,0.84-3.63,1.37-5.51C1079.79,403.33,1064.45,420.51,1044.17,432.37z"/>
				<path class="st3" d="M420.59,459.07c9.11,2.01,18.53,2.79,28.51,4.24c1.79-19.26,3.33-37.18,4.97-55.07
					c-15.97-0.3-30.83-0.48-45.68-0.82c-15.31-0.37-30.09-4.02-43.68-11.15c-13.8-7.25-27.04-15.72-40.85-23.1
					c-23.61-12.55-48.27-17.55-73.95-7.03c-29.32,11.99-47.43,36-61.83,63.71c1.86-1.45,3.36-3.16,4.87-5.02
					c11.88-14.06,25.96-25.17,42.49-33.02c33.94-16.09,65.65-10.7,92.55,16.17C354.31,434.05,385.03,451.19,420.59,459.07z"/>
				<path class="st3" d="M434.67,158.06c4.03,13.78,5.85,28.5,6.76,42.93c2.66,46.4,23.05,82.97,56.96,112.29
					c1.23,1.1,4.55,1.6,5.74,0.63c11.07-7.77,21.93-15.8,33.66-24.54c-27.08-15.56-45.78-38.19-59.03-65.13
					c-8.34-17.01-14.12-35.38-21.19-53.04c-4.8-11.99-8.93-24.56-15.03-35.88c-10.3-19.06-25.92-32.33-46.17-39.47
					c-11.17-3.9-26.13-5.45-32.47-3.09C399.81,100.02,423.91,121.49,434.67,158.06z"/>
				<path class="st3" d="M759.33,295.86c7.85,6.08,15.66,12.27,24.24,18.91c1.4-17.92,4.62-33.93,12.47-48.67
					c10.61-19.99,26.9-30.45,49.04-30.17c6.73,0.06,13.35,1.26,19.97,2.21c18.01,2.62,34.29-0.98,47.82-14.02
					c18.78-18.09,25.64-41.92,29.43-66.87c-2.17,6.3-4.1,12.79-6.59,18.94c-2.7,6.36-5.71,12.59-9.11,18.55
					c-16.46,28.71-40.29,36.23-69.75,22.12c-26.9-12.9-49.36-9.22-70.97,11.88c-13.49,13.22-23.33,29.3-31.35,46.7
					C748.93,287.76,749,287.78,759.33,295.86z"/>
				<path class="st3" d="M655.05,93.86c4.34,21.81,0.04,41.33-14.22,58.32c-4.59,5.54-8.86,11.47-12.44,17.85
					c-13.84,24.26-17.41,49.88-7.71,76.9c0.84,2.12,2.87,5.08,4.55,5.34c12.96,1.52,26.13,2.44,40.32,3.7
					c-2.21-3.57-3.82-6.06-5.25-8.63c-16.39-28.5-17.87-57.37-0.84-85.71c14.89-24.88,16.95-50.33,5.82-77.12
					c-8.72-21.06-22.63-38.14-38.74-53.41c-1.19-1.04-2.38-1.87-3.57-2.8c1.3,3.02,3.05,5.44,4.76,7.83
					C640.26,53.65,650.6,72.24,655.05,93.86z"/>
				<path class="st3" d="M485.25,342.12c-51.32-33.17-101.8-65.83-152.24-98.48c-0.24,0.35-0.53,0.74-0.67,1.12
					c43.44,42.67,86.91,85.35,130.84,128.49C470.68,362.59,477.72,352.73,485.25,342.12z"/>
				<path class="st3" d="M593.78,260.02c-23.89-56.71-47.22-112.44-70.69-168.24c-0.45,0.17-0.95,0.28-1.37,0.45
					c12.65,59.87,25.29,119.75,38.04,180.17C571.57,268.11,582.5,264.15,593.78,260.02z"/>
				<path class="st3" d="M824.45,376.18c47.26-28.24,93.78-55.98,140.16-83.64c-0.1-0.41-0.35-0.82-0.6-1.21
					c-52.06,16.53-104.15,33.13-156.8,49.96C813.1,353.09,818.64,364.24,824.45,376.18z"/>
				<path class="st3" d="M757.58,109.87c-0.49-0.06-0.95-0.13-1.3-0.24c-24.28,48.38-48.66,96.75-72.93,145.13
					c11.04,5.17,20.98,9.89,31.53,14.82C729.17,215.9,743.36,162.89,757.58,109.87z"/>
			</g>
		</g>
		<g>
			<path class="st2" d="M474.19,517.67h-52.02h-26.01c0,14.36-11.64,26.01-26.01,26.01v26.01V881.8l52.02-9.75v-94.28
				c0-24.79,25.08-45.51,52.02-50.74V881.8l52.02-9.75V569.69C523.33,540.43,500.97,517.67,474.19,517.67z M474.19,674.05
				c-20.89,2.05-41.78,13.88-52.02,30.21V602.2c0-14.36,11.64-26.01,26.01-26.01c14.36,0,26.01,11.64,26.01,26.01V674.05z"/>
			<path class="st2" d="M851.33,575.59v98.46c-20.89,2.05-41.78,13.88-52.02,30.21V569.69v-33.11v-26.01v-26.01H773.3
				c0,14.36-11.64,26.01-26.01,26.01v26.01v33.11v208.07V881.8l52.02-9.75v-94.28c0-24.79,25.08-45.51,52.02-50.74v102.76v57.92
				l52.02-9.75v-48.17V575.59v-57.92l-52.02,9.75V575.59z"/>
			<path class="st2" d="M662.92,517.67H610.9h-26.01c0,14.36-11.64,26.01-26.01,26.01v26.01v260.09c0,26.77,22.76,48.98,52.02,51.86
				v0.16h52.02c26.77,0,49.14-22.76,52.02-52.02V735.5l-52.02-9.75v71.53c0,14.36-11.64,26.01-26.01,26.01s-26.01-11.64-26.01-26.01
				V602.2c0-14.36,11.64-26.01,26.01-26.01s26.01,11.64,26.01,26.01v71.53l52.02-9.75v-94.28
				C712.06,540.43,689.7,517.67,662.92,517.67z"/>
			<polygon class="st2" points="188.09,484.56 201.09,504.07 700.48,504.07 708.43,484.56 			"/>
			<polygon class="st2" points="747.29,484.56 734.28,504.07 640.59,504.07 653.59,484.56 			"/>
			<polygon class="st2" points="1091.91,484.56 1078.91,504.07 818.81,504.07 831.82,484.56 			"/>
			<g>
				<g>
					<polygon class="st2" points="384.69,926.06 368.62,909.99 325.77,952.84 368.62,995.69 384.69,979.62 357.9,952.84 					"/>
					<circle class="st2" cx="390.04" cy="952.84" r="15.15"/>
				</g>
				<g>
					<path class="st2" d="M441.33,975.94c-3.1,0-6.08-0.51-8.95-1.54c-2.86-1.02-5.22-2.63-7.06-4.81c-1.84-2.18-2.79-5-2.84-8.47
						h5.04c0,0.16,0.05,0.6,0.16,1.34c0.1,0.74,0.38,1.59,0.83,2.56c0.45,0.97,1.17,1.94,2.17,2.92c1,0.97,2.39,1.78,4.18,2.41
						c1.79,0.63,4.07,0.95,6.86,0.95c3.1,0,5.46-0.46,7.09-1.38c1.63-0.92,2.74-1.97,3.35-3.15c0.6-1.18,0.91-2.11,0.91-2.8
						c0.05-1.84-0.45-3.31-1.5-4.41c-1.05-1.1-2.46-2-4.22-2.68c-1.76-0.68-3.69-1.29-5.79-1.81c-2.1-0.52-4.19-1.09-6.27-1.69
						c-2.08-0.6-3.98-1.39-5.72-2.36c-1.73-0.97-3.1-2.25-4.1-3.82c-1-1.58-1.45-3.6-1.34-6.07c0.1-2.36,0.92-4.39,2.44-6.07
						c1.52-1.68,3.56-2.98,6.11-3.9c2.55-0.92,5.45-1.38,8.71-1.38c3,0,5.77,0.54,8.32,1.62c2.55,1.08,4.58,2.69,6.11,4.85
						c1.52,2.16,2.23,4.84,2.13,8.04H453c0.05-2-0.33-3.64-1.14-4.93c-0.82-1.29-1.88-2.27-3.19-2.96
						c-1.31-0.68-2.67-1.17-4.06-1.46c-1.39-0.29-2.61-0.43-3.66-0.43c-3.31,0-6.04,0.66-8.2,1.97c-2.16,1.31-3.26,3.02-3.31,5.12
						c0,1.84,0.52,3.31,1.58,4.41c1.05,1.1,2.46,1.98,4.22,2.64c1.76,0.66,3.69,1.22,5.79,1.69c2.1,0.47,4.19,1.01,6.27,1.62
						c2.08,0.6,3.98,1.38,5.71,2.33c1.73,0.95,3.1,2.23,4.1,3.86c1,1.63,1.44,3.7,1.34,6.23c-0.11,2.47-0.92,4.56-2.44,6.27
						c-1.52,1.71-3.55,3.02-6.07,3.94C447.4,975.47,444.54,975.94,441.33,975.94z"/>
					<path class="st2" d="M474.04,974.91l15.61-44.38h8.36l15.84,44.38h-5.36l-4.81-13.87h-19.47l-4.81,13.87H474.04z
						 M493.99,932.74l-8.36,24.04h16.63L493.99,932.74z"/>
					<path class="st2" d="M531.51,974.91v-44.38h5.05v39.96h24.59v4.41H531.51z"/>
					<path class="st2" d="M596.7,975.94c-5.94,0-10.5-1.73-13.68-5.2c-3.18-3.47-4.77-8.38-4.77-14.74v-25.46h5.2v25.46
						c0,5.31,1.26,9.16,3.78,11.55c2.52,2.39,5.68,3.59,9.46,3.59c4.1,0,7.34-1.18,9.73-3.55c2.39-2.36,3.59-6.23,3.59-11.59v-25.46
						h5.2v25.46c0,6.46-1.56,11.4-4.69,14.82C607.4,974.23,602.79,975.94,596.7,975.94z"/>
					<path class="st2" d="M674.34,952.68c0,5.83-1.1,10.37-3.31,13.6c-2.21,3.23-5.31,5.48-9.3,6.74
						c-3.99,1.26-8.67,1.89-14.03,1.89h-11.75v-44.38h11.75c5.36,0,10.04,0.83,14.03,2.48c3.99,1.66,7.09,4.11,9.3,7.37
						C673.24,943.64,674.34,947.74,674.34,952.68z M641,970.58h7.8c4.1,0,7.66-0.46,10.68-1.38c3.02-0.92,5.36-2.67,7.02-5.24
						c1.66-2.57,2.48-6.33,2.48-11.27c0-6.04-1.84-10.5-5.52-13.36c-3.68-2.86-8.57-4.3-14.66-4.3H641V970.58z"/>
					<path class="st2" d="M689.55,974.91l15.61-44.38h8.36l15.84,44.38H724l-4.81-13.87h-19.47l-4.81,13.87H689.55z M709.5,932.74
						l-8.36,24.04h16.63L709.5,932.74z"/>
					<path class="st2" d="M746.46,974.91v-44.38h16c1.94,0,3.9,0.13,5.87,0.39c1.97,0.26,3.78,0.79,5.44,1.58
						c1.66,0.79,3,1.97,4.02,3.55c1.02,1.58,1.54,3.65,1.54,6.23c0,1.73-0.33,3.32-0.99,4.77c-0.66,1.45-1.84,2.61-3.55,3.51
						c-1.71,0.89-4.17,1.42-7.37,1.58c3.73,0,6.59,0.54,8.59,1.62c2,1.08,3.38,2.43,4.14,4.06c0.76,1.63,1.14,3.44,1.14,5.44
						c0,2.63-0.57,4.73-1.69,6.31c-1.13,1.58-2.59,2.75-4.38,3.51c-1.79,0.76-3.73,1.26-5.83,1.5c-2.1,0.24-4.13,0.35-6.07,0.35
						H746.46z M751.51,950h10.4c2.47,0,4.62-0.16,6.46-0.47c1.84-0.32,3.27-0.99,4.3-2.01c1.03-1.02,1.54-2.61,1.54-4.77
						c0-2.47-0.57-4.26-1.69-5.36c-1.13-1.1-2.63-1.8-4.49-2.09c-1.87-0.29-3.88-0.43-6.03-0.43h-10.48V950z M751.51,970.65h11.43
						c2.42,0,4.61-0.17,6.58-0.51c1.97-0.34,3.55-1.08,4.73-2.21c1.18-1.13,1.77-2.88,1.77-5.24c0-2.47-0.63-4.32-1.89-5.56
						c-1.26-1.23-2.94-2.05-5.05-2.44c-2.1-0.39-4.44-0.59-7.02-0.59h-10.56V970.65z"/>
					<path class="st2" d="M800.38,974.91v-44.38h5.04v39.96h24.59v4.41H800.38z"/>
					<path class="st2" d="M852.48,970.65h25.54v4.26h-30.51v-44.38h29.72v4.49h-24.75v15.29h19.63v4.26h-19.63V970.65z"/>
				</g>
				<g>
					<polygon class="st2" points="915.8,926.06 931.87,909.99 974.72,952.84 931.87,995.69 915.8,979.62 942.58,952.84 					"/>
					<circle class="st2" cx="910.44" cy="952.84" r="15.15"/>
				</g>
			</g>
			<path class="st2" d="M344.09,569.31c-3.07-29.03-25.33-51.65-51.96-51.65h-52.02H214.1c0,14.36-11.64,26.01-26.01,26.01v18.91
				v7.1v375.94v26.35v20.92c10.21-11.56,25.49-24.65,48.47-38.39l3.55-1.77V825.11c2.24-23.12,26.46-42.63,52.02-47.87v0.05
				c2.37-0.23,4.69-0.61,6.96-1.11c0.03,0,0.06-0.01,0.09-0.01h-0.05c25.66-5.59,44.8-27.19,45-51.62h0.01V569.31H344.09z
				 M216,840.93l-1.32,44.25c-0.78,14.75-1.24,29.5-2.31,44.25c-1.07-14.75-1.53-29.5-2.31-44.25l-1.32-44.25
				c-0.85-29.5-0.98-59-1.09-88.5c0.12-29.5,0.24-59,1.1-88.5c0.75-29.5,1.67-59,3.61-88.5c1.94,29.5,2.86,59,3.61,88.5
				c0.86,29.5,0.98,59,1.1,88.5C216.98,781.93,216.86,811.43,216,840.93z M292.13,724.15v0.72c-20.89,2.05-41.78,13.88-52.02,30.21
				V602.2c0-14.36,11.64-26.01,26.01-26.01c14.36,0,26.01,11.64,26.01,26.01V724.15z"/>
			<path class="st2" d="M1039.89,517.67h-52.02h-26.01c0,14.36-11.64,26.01-26.01,26.01v26.01V881.8l52.02-9.75v-94.28
				c0-24.79,25.08-45.51,52.02-50.74v225.22l0.17,0.09v0.4c24.96,14.56,41.21,28.44,51.85,40.6v-21.14v-26.56V569.79
				C1089.04,540.53,1066.67,517.67,1039.89,517.67z M1039.89,674.05c-20.89,2.05-41.78,13.88-52.02,30.22V602.2
				c0-14.36,11.64-26.01,26.01-26.01c14.36,0,26.01,11.64,26.01,26.01V674.05z M1073.85,840.93l-1.32,44.25
				c-0.78,14.75-1.24,29.5-2.31,44.25c-1.07-14.75-1.53-29.5-2.31-44.25l-1.32-44.25c-0.85-29.5-0.98-59-1.09-88.5
				c0.12-29.5,0.24-59,1.1-88.5c0.75-29.5,1.67-59,3.61-88.5c1.94,29.5,2.86,59,3.61,88.5c0.86,29.5,0.98,59,1.1,88.5
				C1074.83,781.93,1074.7,811.43,1073.85,840.93z"/>
		</g>
	</g>
</g>
</svg>
